<?xml version="1.0" encoding="UTF-8" standalone="no"?>
<svg
   xmlns:dc="http://purl.org/dc/elements/1.1/"
   xmlns:cc="http://creativecommons.org/ns#"
   xmlns:rdf="http://www.w3.org/1999/02/22-rdf-syntax-ns#"
   xmlns:svg="http://www.w3.org/2000/svg"
   xmlns="http://www.w3.org/2000/svg"
   xmlns:sodipodi="http://sodipodi.sourceforge.net/DTD/sodipodi-0.dtd"
   xmlns:inkscape="http://www.inkscape.org/namespaces/inkscape"
   version="1.1"
   width="0.025400cm"
   height="0.025400cm"
   viewBox="0 0 100 100"
   id="svg1622"
   sodipodi:docname="light_guide_outlines_merged.svg"
   inkscape:version="1.0.1 (3bc2e813f5, 2020-09-07)">
  <metadata
     id="metadata1628">
    <rdf:RDF>
      <cc:Work
         rdf:about="">
        <dc:format>image/svg+xml</dc:format>
        <dc:type
           rdf:resource="http://purl.org/dc/dcmitype/StillImage" />
        <dc:title>SVG Picture created as bc-brd.svg date 2020/11/08 14:07:51 </dc:title>
      </cc:Work>
    </rdf:RDF>
  </metadata>
  <defs
     id="defs1626" />
  <sodipodi:namedview
     pagecolor="#ffffff"
     bordercolor="#666666"
     borderopacity="1"
     objecttolerance="10"
     gridtolerance="10"
     guidetolerance="10"
     inkscape:pageopacity="0"
     inkscape:pageshadow="2"
     inkscape:window-width="1918"
     inkscape:window-height="1058"
     id="namedview1624"
     showgrid="false"
     inkscape:zoom="2.8284271"
     inkscape:cx="428.25918"
     inkscape:cy="551.53422"
     inkscape:window-x="0"
     inkscape:window-y="20"
     inkscape:window-maximized="0"
     inkscape:current-layer="g2209"
     inkscape:document-rotation="0"
     showguides="true"
     inkscape:guide-bbox="true"
     inkscape:document-units="mm"
     inkscape:object-paths="true" />
  <title
     id="title2">SVG Picture created as bc-brd.svg date 2020/11/08 14:07:51 </title>
  <desc
     id="desc4">Picture generated by PCBNEW </desc>
  <g
     style="fill:#000000; fill-opacity:1;stroke:#000000; stroke-opacity:1; stroke-linecap:round; stroke-linejoin:round;"
     transform="translate(0 0) scale(1 1)"
     id="g6" />
  <g
     style="fill:#000000; fill-opacity:0.0;  stroke:#000000; stroke-width:-0.000393701; stroke-opacity:1;  stroke-linecap:round; stroke-linejoin:round;"
     id="g8" />
  <g
     id="g36"
     style="fill:#000000;fill-opacity:1;stroke:#000000;stroke-width:3.93701;stroke-linecap:round;stroke-linejoin:round;stroke-opacity:1" />
  <g
     id="g38"
     style="fill:#000000;fill-opacity:1;stroke:#000000;stroke-width:3.93701;stroke-linecap:round;stroke-linejoin:round;stroke-opacity:1" />
  <g
     id="g40"
     style="fill:#000000;fill-opacity:1;stroke:#000000;stroke-width:3.93701;stroke-linecap:round;stroke-linejoin:round;stroke-opacity:1" />
  <g
     id="g42"
     style="fill:#000000;fill-opacity:1;stroke:#000000;stroke-width:3.93701;stroke-linecap:round;stroke-linejoin:round;stroke-opacity:1" />
  <g
     style="fill:#000000;fill-opacity:1;stroke:#000000;stroke-width:3.93701;stroke-linecap:round;stroke-linejoin:round;stroke-opacity:1"
     id="g44" />
  <g
     id="g114"
     style="fill:#000000;fill-opacity:1;stroke:#000000;stroke-width:3.93701;stroke-linecap:round;stroke-linejoin:round;stroke-opacity:1" />
  <g
     id="g122"
     style="fill:#000000;fill-opacity:1;stroke:#000000;stroke-width:3.93701;stroke-linecap:round;stroke-linejoin:round;stroke-opacity:1" />
  <g
     id="g130"
     style="fill:#000000;fill-opacity:1;stroke:#000000;stroke-width:3.93701;stroke-linecap:round;stroke-linejoin:round;stroke-opacity:1" />
  <g
     id="g138"
     style="fill:#000000;fill-opacity:1;stroke:#000000;stroke-width:3.93701;stroke-linecap:round;stroke-linejoin:round;stroke-opacity:1" />
  <g
     id="g146"
     style="fill:#000000;fill-opacity:1;stroke:#000000;stroke-width:3.93701;stroke-linecap:round;stroke-linejoin:round;stroke-opacity:1" />
  <g
     id="g154"
     style="fill:#000000;fill-opacity:1;stroke:#000000;stroke-width:3.93701;stroke-linecap:round;stroke-linejoin:round;stroke-opacity:1" />
  <g
     id="g162"
     style="fill:#000000;fill-opacity:1;stroke:#000000;stroke-width:3.93701;stroke-linecap:round;stroke-linejoin:round;stroke-opacity:1" />
  <g
     id="g170"
     style="fill:#000000;fill-opacity:1;stroke:#000000;stroke-width:3.93701;stroke-linecap:round;stroke-linejoin:round;stroke-opacity:1" />
  <g
     id="g178"
     style="fill:#000000;fill-opacity:1;stroke:#000000;stroke-width:3.93701;stroke-linecap:round;stroke-linejoin:round;stroke-opacity:1" />
  <g
     id="g186"
     style="fill:#000000;fill-opacity:1;stroke:#000000;stroke-width:3.93701;stroke-linecap:round;stroke-linejoin:round;stroke-opacity:1" />
  <g
     id="g194"
     style="fill:#000000;fill-opacity:1;stroke:#000000;stroke-width:3.93701;stroke-linecap:round;stroke-linejoin:round;stroke-opacity:1" />
  <g
     id="g202"
     style="fill:#000000;fill-opacity:1;stroke:#000000;stroke-width:3.93701;stroke-linecap:round;stroke-linejoin:round;stroke-opacity:1" />
  <g
     id="g210"
     style="fill:#000000;fill-opacity:1;stroke:#000000;stroke-width:3.93701;stroke-linecap:round;stroke-linejoin:round;stroke-opacity:1" />
  <g
     id="g218"
     style="fill:#000000;fill-opacity:1;stroke:#000000;stroke-width:3.93701;stroke-linecap:round;stroke-linejoin:round;stroke-opacity:1" />
  <g
     id="g226"
     style="fill:#000000;fill-opacity:1;stroke:#000000;stroke-width:3.93701;stroke-linecap:round;stroke-linejoin:round;stroke-opacity:1" />
  <g
     id="g234"
     style="fill:#000000;fill-opacity:1;stroke:#000000;stroke-width:3.93701;stroke-linecap:round;stroke-linejoin:round;stroke-opacity:1" />
  <g
     id="g242"
     style="fill:#000000;fill-opacity:1;stroke:#000000;stroke-width:3.93701;stroke-linecap:round;stroke-linejoin:round;stroke-opacity:1" />
  <g
     id="g250"
     style="fill:#000000;fill-opacity:1;stroke:#000000;stroke-width:3.93701;stroke-linecap:round;stroke-linejoin:round;stroke-opacity:1" />
  <g
     id="g252"
     style="fill:#000000;fill-opacity:1;stroke:#000000;stroke-width:3.93701;stroke-linecap:round;stroke-linejoin:round;stroke-opacity:1" />
  <g
     id="g254"
     style="fill:#000000;fill-opacity:1;stroke:#000000;stroke-width:3.93701;stroke-linecap:round;stroke-linejoin:round;stroke-opacity:1" />
  <g
     style="fill:#000000; fill-opacity:1.0;  stroke:#000000; stroke-width:0; stroke-opacity:1;  stroke-linecap:round; stroke-linejoin:round;"
     id="g302">
    <g
       id="g258" />
    <g
       id="g260" />
    <g
       id="g262" />
    <g
       id="g264" />
    <g
       id="g266" />
    <g
       id="g268" />
    <g
       id="g270" />
    <g
       id="g272" />
    <g
       id="g274" />
    <g
       id="g276" />
    <g
       id="g278" />
    <g
       id="g280" />
    <g
       id="g282" />
    <g
       id="g284" />
    <g
       id="g286" />
    <g
       id="g288" />
    <g
       id="g290" />
    <g
       id="g292" />
    <g
       id="g294" />
    <g
       id="g296" />
    <g
       id="g298" />
    <g
       id="g300" />
  </g>
  <g
     style="fill:#000000; fill-opacity:1.0;  stroke:#000000; stroke-width:0; stroke-opacity:1;  stroke-linecap:round; stroke-linejoin:round;"
     id="g304" />
  <g
     style="fill:#000000; fill-opacity:1.0;  stroke:#000000; stroke-width:19.685; stroke-opacity:1;  stroke-linecap:round; stroke-linejoin:round;"
     id="g306" />
  <g
     style="fill:#000000; fill-opacity:1.0;  stroke:#000000; stroke-width:19.685; stroke-opacity:1;  stroke-linecap:round; stroke-linejoin:round;"
     id="g484" />
  <g
     style="fill:#000000; fill-opacity:1.0;  stroke:#000000; stroke-width:19.685; stroke-opacity:1;  stroke-linecap:round; stroke-linejoin:round;"
     id="g778" />
  <g
     style="fill:#000000; fill-opacity:1.0;  stroke:#000000; stroke-width:19.685; stroke-opacity:1;  stroke-linecap:round; stroke-linejoin:round;"
     id="g1192" />
  <g
     style="fill:#000000; fill-opacity:1.0;  stroke:#000000; stroke-width:19.685; stroke-opacity:1;  stroke-linecap:round; stroke-linejoin:round;"
     id="g1280" />
  <g
     style="fill:#000000; fill-opacity:1.0;  stroke:#000000; stroke-width:19.685; stroke-opacity:1;  stroke-linecap:round; stroke-linejoin:round;"
     id="g1406" />
  <g
     style="fill:#000000; fill-opacity:1.0;  stroke:#000000; stroke-width:19.685; stroke-opacity:1;  stroke-linecap:round; stroke-linejoin:round;"
     id="g1530" />
  <g
     inkscape:groupmode="layer"
     id="g2213"
     inkscape:label="enclosure"
     style="display:none;opacity:0.283616"
     sodipodi:insensitive="true">
    <path
       style="font-variation-settings:normal;opacity:1;vector-effect:none;fill:#008000;fill-opacity:1;stroke:none;stroke-width:104.167px;stroke-linecap:butt;stroke-linejoin:miter;stroke-miterlimit:4;stroke-dasharray:none;stroke-dashoffset:0;stroke-opacity:1;stop-color:#000000;stop-opacity:1"
       d="M 34540.562,56908.636 V 54086.67 H 44833.1 l 961.55,448.256 c 7505.184,0 15010.367,0 22515.551,0 V 65912.151 H 54231.099 V 57871.052 H 44833.1 v -962.416 z"
       id="path2211"
       sodipodi:nodetypes="ccccccccccc" />
  </g>
  <g
     inkscape:groupmode="layer"
     id="g2209"
     inkscape:label="enclosure_cutout_shallow"
     style="display:inline;opacity:0.59116"
     sodipodi:insensitive="true">
    <path
       id="path2207"
       style="display:inline;fill:#0000ff;fill-opacity:1;stroke:none;stroke-width:1.00157;stroke-linecap:round;stroke-linejoin:round;stop-color:#000000"
       d="m 358.41992,524.17188 -23.04101,4.0625 1.1582,6.56445 0.74219,-0.13086 v 7.71289 l 5.04492,-0.88867 v 16.89843 14.37696 h 182.07422 v 11.98633 L 544.75,581.16602 v -8.39844 h 3.72852 v 11.43359 l -11.83985,2.10352 v 36.24609 l 6.42578,-1.13281 h 1.13282 v 7.55859 h 23.05664 v -7.55859 h 5.38476 l -0.0762,-33.32617 -6.50391,1 -0.0156,-16.32422 h 3.71484 v 11.98633 l 20.32031,-3.58203 v -8.4043 h 3.6211 l -0.043,11.4707 -17.33789,3.05469 v 35.25781 l 6.46094,-1.13281 h 1.73828 v 7.55859 h 23.05469 v -7.55859 h 4.74609 v -48.65039 h 3.67969 v 49.79101 l 6.47265,-1.14062 h 2.07813 v 7.55859 h 23.05664 v -7.55859 h 4.39258 v -84.74219 h -5.81055 v -7.56055 h -23.05469 v 7.56055 h -7.13476 v 21.71484 h -3.67969 v -21.71484 h 3.67969 v -7.56055 h -92.61133 l -2.76758,-0.9707 h -5.05078 -7.61524 v 23.63867 6.60742 h -14.94531 v -6.60742 h 7.24414 v -23.63867 h -7.24414 -7.61914 v 23.63867 6.60742 H 469.8066 v -6.60742 h 7.35742 v -23.63867 h -7.35742 -7.61719 v 23.63867 6.60742 h -14.86328 v -6.60742 h 0.002 7.73633 v -23.63867 h -7.73633 -7.69921 v 23.63867 6.60742 h -14.4961 v -18.84179 l 5.26563,-0.92774 v -7.71679 l 0.18945,-0.0332 -1.18164,-6.69921 -22.91016,4.04101 -0.71093,-4.04101 -23.09375,4.07226 -0.71289,-4.03906 -22.8418,4.02734 z m 1.1582,6.5625 0.72657,4.11718 0.0937,-0.0156 v 7.71679 l 5.92578,-1.04492 v 16.88281 h -12.66016 v -18.89843 l 4.95313,-0.87305 v -7.71484 z m 47.375,0.0625 0.72461,4.11328 0.48047,-0.084 v 7.7168 l 5.63477,-0.99414 v 16.84179 h -12.66016 v -18.85937 l 5.18555,-0.91406 v -7.70899 z m -23.80664,0.0273 0.7129,4.04492 0.69921,-0.12305 v 7.70899 l 5.23438,-0.92383 v 16.85937 h -12.12891 v -18.88281 l 5.05274,-0.89062 v -7.7168 z m 161.60352,5.8516 h 3.72852 v 21.71484 H 544.75 Z m 21.25977,0 h 3.74804 v 21.71484 h -3.72851 z m 24.06835,0 h 3.75977 l -0.082,21.71484 h -3.67774 z m -74.50976,15.10742 h 8.83008 v 6.60742 h -8.83008 z"
       transform="scale(104.16667)" />
  </g>
  <g
     inkscape:groupmode="layer"
     id="g2175"
     inkscape:label="enclosure_cutout_deep"
     style="display:none;opacity:0.582096"
     sodipodi:insensitive="true">
    <path
       id="path2149"
       style="font-variation-settings:normal;opacity:1;vector-effect:none;fill:#8e8e8e;fill-opacity:1;stroke:none;stroke-width:1px;stroke-linecap:butt;stroke-linejoin:miter;stroke-miterlimit:4;stroke-dasharray:none;stroke-dashoffset:0;stroke-opacity:1;stop-color:#000000;stop-opacity:1"
       d="m 358.41992,524.17188 -23.04101,4.0625 1.1582,6.56445 0.74219,-0.13086 v 7.71289 l 21.33789,-3.76172 v -7.71484 l 0.96093,-0.16992 0.72657,4.11718 0.0937,-0.0156 v 7.71679 l 22.31836,-3.93554 v -7.7168 l 0.42968,-0.0762 0.7129,4.04492 0.69921,-0.12305 v 7.70899 l 21.75977,-3.83789 v -7.70899 l 0.63476,-0.11132 0.72461,4.11328 0.48047,-0.084 v 7.7168 l 22.24024,-3.92188 v -7.71679 l 0.18945,-0.0332 -1.18164,-6.69921 -22.91016,4.04101 -0.71093,-4.04101 -23.09375,4.07226 -0.71289,-4.03906 -22.8418,4.02734 z m 81.20899,3.97265 v 23.63867 h 7.69921 7.73633 v -23.63867 h -7.73633 z m 22.56054,0 v 23.63867 h 7.61719 7.35742 v -23.63867 h -7.35742 z m 23.19922,0 v 23.63867 h 7.61914 7.24414 v -23.63867 h -7.24414 z m 22.56445,0 v 23.63867 h 7.61524 8.83008 v 32.97071 L 544.75,581.16602 v -44.49024 h 3.72852 v 47.52539 l -11.83985,2.10352 v 36.24609 l 6.42578,-1.13281 h 1.13282 v 7.55859 h 23.05664 v -7.55859 h 5.38476 l -0.0762,-33.32617 -6.50391,1 -0.0488,-52.41602 h 3.74804 v 48.07813 l 20.32031,-3.58203 v -44.4961 h 3.75977 l -0.18164,47.5625 -17.33789,3.05469 v 35.25781 l 6.46094,-1.13281 h 1.73828 v 7.55859 h 23.05469 v -7.55859 h 4.74609 v -84.74219 h 3.67969 v -7.56055 h -92.61133 l -2.76758,-0.9707 h -5.05078 z m 108.04493,8.53125 v 85.88281 l 6.47265,-1.14062 h 2.07813 v 7.55859 h 23.05664 v -7.55859 h 4.39258 v -84.74219 h -5.81055 v -7.56055 h -23.05469 v 7.56055 z"
       transform="scale(104.16667)" />
  </g>
  <g
     inkscape:groupmode="layer"
     id="g2146"
     inkscape:label="light_guide_base_reduced"
     style="display:none;opacity:0.59116"
     sodipodi:insensitive="true">
    <path
       id="path2144"
       style="display:inline;fill:#0000ff;fill-opacity:1;stroke:none;stroke-width:104.33;stroke-linecap:round;stroke-linejoin:round;stop-color:#000000"
       d="m 45834.148,57477.419 c 0,229.425 0,458.848 0,688.272 -44.895,70.653 -136.749,27.942 -206.135,39.47 -447.781,0 -895.563,0 -1343.344,0 -70.652,-44.897 -27.942,-136.749 -39.469,-206.136 0,-598.673 0,-1197.347 0,-1796.02 42.284,-69.402 138.175,-46.034 206.947,-69.598 113.852,-20.069 227.703,-40.136 341.555,-60.204 0,-241.224 0,-482.449 0,-723.673 -745.917,131.564 -1491.834,263.129 -2237.752,394.694 0,241.225 0,482.449 0,723.674 180.19,-31.807 360.378,-63.613 540.568,-95.419 74.665,33.929 37.966,119.842 46.388,184.693 0,536.173 0,1072.347 0,1608.519 -44.897,70.653 -136.75,27.942 -206.137,39.47 -384.033,0 -768.067,0 -1152.1,0 -70.652,-44.897 -27.942,-136.749 -39.469,-206.136 0,-599.284 0,-1198.567 0,-1797.851 42.284,-69.4 138.173,-46.044 206.944,-69.614 111.073,-19.587 222.145,-39.176 333.217,-58.763 0,-240.954 0,-481.907 0,-722.86 -729.235,128.58 -1458.469,257.161 -2187.703,385.742 0,241.021 0,482.042 0,723.063 166.286,-29.364 332.574,-58.73 498.86,-88.094 74.665,33.929 37.966,119.841 46.387,184.692 -10e-4,536.784 0,1073.568 0,1610.351 -44.896,70.653 -136.75,27.942 -206.136,39.47 -365.588,0 -731.174,0 -1096.761,0 -70.653,-44.897 -27.942,-136.749 -39.469,-206.136 0,-600.097 0,-1200.195 0,-1800.293 42.283,-69.4 138.174,-46.044 206.944,-69.612 106.461,-18.775 212.921,-37.549 319.382,-56.323 0,-241.225 0,-482.449 0,-723.674 -748.63,131.971 -1497.261,263.943 -2245.891,395.914 0,241.293 0,482.586 0,723.877 190.295,-33.568 380.589,-67.138 570.882,-100.707 74.665,33.928 37.966,119.841 46.387,184.692 10e-4,537.598 0,1075.196 0,1612.792 -44.896,70.653 -136.749,27.942 -206.136,39.47 -384.033,0 -768.066,0 -1152.1,0 -70.652,-44.897 -27.941,-136.749 -39.468,-206.136 0,-600.64 0,-1201.28 0,-1801.92 42.283,-69.401 138.174,-46.044 206.943,-69.613 103.003,-18.164 206.005,-36.328 309.007,-54.492 0,-241.157 0,-482.314 0,-723.47 -714.586,126.003 -1429.172,252.007 -2143.759,378.011 0,241.157 0,482.313 0,723.47 159.71,-28.144 319.418,-56.288 479.126,-84.432 74.665,33.929 37.966,119.842 46.387,184.693 0,1024.183 10e-4,2048.366 0,3072.55 6308.866,0 12617.73,0 18926.596,0 70.652,44.897 27.942,136.75 39.469,206.136 0,344.971 0,689.942 0,1034.912 680.339,-119.968 1360.677,-239.936 2041.016,-359.903 0,-280.559 0,-561.117 0,-841.676 44.897,-70.652 136.75,-27.941 206.136,-39.469 75.205,5.248 159.02,-10.289 229.087,7.365 60.736,42.06 20.614,125.896 32.103,188.354 0,344.917 0,689.833 0,1034.749 -42.289,69.377 -138.146,46.202 -206.903,69.848 -342.138,60.811 -684.276,121.621 -1026.414,182.432 0,1231.825 0,2463.65 0,3695.475 220.556,-34.865 439.655,-85.634 661.132,-110.474 1003.31,0 2006.619,0 3009.93,0 -2.577,-1128.744 -5.155,-2257.487 -7.732,-3386.23 -210.775,32.416 -421.55,64.833 -632.325,97.248 -75.992,-37.013 -35.409,-127.739 -45.518,-195.108 -0.493,-514.73 -0.986,-1029.46 -1.479,-1544.19 44.897,-70.652 136.75,-27.941 206.137,-39.469 74.703,5.314 158.107,-10.379 227.661,7.365 60.737,42.06 20.615,125.896 32.105,188.354 0,348.443 0,696.886 0,1045.329 679.253,-119.765 1358.507,-239.528 2037.76,-359.293 0,-280.763 0,-561.524 0,-842.286 44.897,-70.652 136.749,-27.941 206.135,-39.469 71.439,5.319 151.621,-10.397 217.879,7.384 60.745,42.224 20.293,125.992 31.537,188.538 -1.297,346.205 -2.594,692.41 -3.891,1038.615 -42.475,69.143 -138.204,45.845 -206.948,69.387 -533.028,93.923 -1066.055,187.846 -1599.082,281.77 0,1197.509 0,2395.019 0,3592.529 221.784,-34.78 442.104,-85.635 664.795,-110.474 1002.089,0 2004.177,0 3006.266,0 0,-1676.093 0,-3352.187 0,-5028.28 44.897,-70.652 136.75,-27.941 206.136,-39.469 73.628,4.963 155.468,-9.898 224,7.365 60.737,42.06 20.615,125.896 32.103,188.354 0,1661.106 0,3322.212 0,4983.317 222.192,-35.049 442.901,-86.29 666.016,-111.287 1001.682,0 2003.364,0 3005.046,0 0,-2916.124 0,-5832.248 0,-8748.372 -1223.688,0 -2447.374,0 -3671.062,0 0,740.831 0,1481.662 0,2222.492 -44.895,70.653 -136.749,27.942 -206.135,39.47 -73.628,-4.963 -155.468,9.899 -224,-7.365 -60.737,-42.06 -20.615,-125.896 -32.104,-188.355 0,-688.746 0,-1377.494 0,-2066.242 -615.438,0 -1230.875,0 -1846.314,0 -2.78,740.899 -5.56,1481.798 -8.34,2222.697 -45.065,70.389 -136.782,27.735 -206.137,39.265 -73.555,-4.975 -155.338,9.916 -223.797,-7.365 -60.736,-42.06 -20.614,-125.896 -32.103,-188.355 0,-688.746 0,-1377.494 0,-2066.242 -679.253,0 -1358.507,0 -2037.76,0 0,740.831 0,1481.662 0,2222.492 -44.897,70.653 -136.75,27.942 -206.137,39.47 -75.205,-5.248 -159.02,10.289 -229.085,-7.365 -60.72,-42.06 -20.712,-125.895 -32.247,-188.354 -0.631,-688.747 -1.262,-1377.495 -1.892,-2066.243 -582.411,0 -1164.822,0 -1747.233,0 0,740.831 0,1481.662 0,2222.492 -44.897,70.653 -136.749,27.942 -206.136,39.47 -75.206,-5.248 -159.019,10.289 -229.086,-7.365 -60.737,-42.06 -20.615,-125.896 -32.104,-188.355 0,-688.746 0,-1377.494 0,-2066.242 -680.339,0 -1360.677,0 -2041.016,0 0,740.831 0,1481.662 0,2222.492 -44.896,70.653 -136.749,27.942 -206.135,39.47 -251.045,0 -502.089,0 -753.134,0 -70.652,-44.897 -27.941,-136.749 -39.47,-206.136 0,-981.499 0,-1962.999 0,-2944.498 -238.104,0 -476.209,0 -714.314,0 0,1037.055 0,2074.11 0,3111.164 -44.897,70.653 -136.749,27.942 -206.136,39.47 -463.379,0 -926.758,0 -1390.137,0 -70.652,-44.897 -27.942,-136.749 -39.469,-206.136 0,-981.499 0,-1962.999 0,-2944.498 -238.241,0 -476.481,0 -714.722,0 0,1037.055 0,2074.11 0,3111.164 -44.897,70.653 -136.75,27.942 -206.136,39.47 -485.488,0 -970.974,0 -1456.462,0 -70.652,-44.897 -27.941,-136.749 -39.47,-206.136 0,-981.499 0,-1962.999 0,-2944.498 -238.171,0 -476.344,0 -714.517,0 0,1037.055 0,2074.11 0,3111.164 -44.897,70.653 -136.749,27.942 -206.137,39.47 -460.53,0 -921.06,0 -1381.591,0 -70.653,-44.897 -27.942,-136.749 -39.469,-206.136 0.294,-981.273 0.191,-1962.943 0.203,-2944.498 -241.021,0 -482.043,0 -723.064,0 0,807.63 0,1615.261 0,2422.892 z" />
  </g>
  <g
     inkscape:groupmode="layer"
     id="g2123"
     inkscape:label="light_guide_body_reduced"
     style="display:none;opacity:0.582096"
     sodipodi:insensitive="true">
    <path
       id="path2097"
       style="font-variation-settings:normal;opacity:1;vector-effect:none;fill:#8e8e8e;fill-opacity:1;stroke:none;stroke-width:104.167px;stroke-linecap:butt;stroke-linejoin:miter;stroke-miterlimit:4;stroke-dasharray:none;stroke-dashoffset:0;stroke-opacity:1;stop-color:#000000;stop-opacity:1"
       d="m 61878.471,60858.252 c -0.04,10.971 -0.08,21.941 -0.125,32.912 -601.925,106.059 -1203.851,212.119 -1805.776,318.178 -0.03,1197.596 -0.07,2395.193 -0.1,3592.789 210.072,-36.816 420.144,-73.635 630.216,-110.449 1013.681,0 2027.362,0 3041.043,0 0,-2916.187 0,-5832.374 0,-8748.561 -615.47,0 -1230.941,0 -1846.412,0 -6.283,1638.377 -12.566,3276.754 -18.849,4915.131 z" />
    <path
       id="path2099"
       style="font-variation-settings:normal;opacity:1;vector-effect:none;fill:#8e8e8e;fill-opacity:1;stroke:none;stroke-width:104.167px;stroke-linecap:butt;stroke-linejoin:miter;stroke-miterlimit:4;stroke-dasharray:none;stroke-dashoffset:0;stroke-opacity:1;stop-color:#000000;stop-opacity:1"
       d="m 64205.871,64803.01 c 210.455,-37.11 420.91,-74.219 631.365,-111.328 1013.299,0 2026.598,0 3039.897,0 0,-2916.187 0,-5832.374 0,-8748.561 -1223.754,0 -2447.508,0 -3671.262,0 0,2953.296 0,5906.593 0,8859.889 z" />
    <path
       id="path2101"
       style="font-variation-settings:normal;opacity:1;vector-effect:none;fill:#8e8e8e;fill-opacity:1;stroke:none;stroke-width:104.167px;stroke-linecap:butt;stroke-linejoin:miter;stroke-miterlimit:4;stroke-dasharray:none;stroke-dashoffset:0;stroke-opacity:1;stop-color:#000000;stop-opacity:1"
       d="m 59389.17,60865.029 c 679.321,-119.783 1358.642,-239.566 2037.963,-359.349 0,-1520.853 0,-3041.706 0,-4562.559 -679.321,0 -1358.642,0 -2037.963,0 0,1640.636 0,3281.272 0,4921.908 z" />
    <path
       id="path2103"
       style="font-variation-settings:normal;opacity:1;vector-effect:none;fill:#8e8e8e;fill-opacity:1;stroke:none;stroke-width:104.167px;stroke-linecap:butt;stroke-linejoin:miter;stroke-miterlimit:4;stroke-dasharray:none;stroke-dashoffset:0;stroke-opacity:1;stop-color:#000000;stop-opacity:1"
       d="m 57172.467,60854.201 c 0,10.996 0,21.991 0,32.987 -411.1,73.101 -822.201,146.2 -1233.301,219.3 0,1231.867 0,2463.733 0,3695.6 208.849,-36.802 417.697,-73.608 626.547,-110.406 1014.875,0 2029.751,0 3044.627,0 -2.537,-1128.767 -5.074,-2257.534 -7.612,-3386.301 -225.853,34.769 -451.707,69.538 -677.56,104.308 -1.743,-1822.189 -3.49,-3644.378 -5.234,-5466.568 -582.491,0 -1164.981,0 -1747.471,0 0,1637.027 0,3274.053 0,4911.08 z" />
    <path
       id="path2105"
       style="font-variation-settings:normal;opacity:1;vector-effect:none;fill:#8e8e8e;fill-opacity:1;stroke:none;stroke-width:104.167px;stroke-linecap:butt;stroke-linejoin:miter;stroke-miterlimit:4;stroke-dasharray:none;stroke-dashoffset:0;stroke-opacity:1;stop-color:#000000;stop-opacity:1"
       d="m 54664.17,60864.934 c 680.42,-119.978 1360.841,-239.955 2041.262,-359.932 0,-1520.627 0,-3041.254 0,-4561.881 -680.421,0 -1360.842,0 -2041.262,0 0,1640.604 0,3281.208 0,4921.813 z" />
    <path
       id="path2107"
       style="font-variation-settings:normal;opacity:1;vector-effect:none;fill:#8e8e8e;fill-opacity:1;stroke:none;stroke-width:104.167px;stroke-linecap:butt;stroke-linejoin:miter;stroke-miterlimit:4;stroke-dasharray:none;stroke-dashoffset:0;stroke-opacity:1;stop-color:#000000;stop-opacity:1"
       d="m 52951.115,57437.982 c 238.156,0 476.311,0 714.467,0 0,-794.487 0,-1588.975 0,-2383.462 -238.156,0 -476.311,0 -714.467,0 0,794.487 0,1588.975 0,2383.462 z" />
    <path
       id="path2109"
       style="font-variation-settings:normal;opacity:1;vector-effect:none;fill:#8e8e8e;fill-opacity:1;stroke:none;stroke-width:104.167px;stroke-linecap:butt;stroke-linejoin:miter;stroke-miterlimit:4;stroke-dasharray:none;stroke-dashoffset:0;stroke-opacity:1;stop-color:#000000;stop-opacity:1"
       d="m 50600.693,57437.982 c 238.297,0 476.593,0 714.889,0 0,-794.487 0,-1588.975 0,-2383.462 -238.296,0 -476.592,0 -714.889,0 0,794.487 0,1588.975 0,2383.462 z" />
    <path
       id="path2111"
       style="font-variation-settings:normal;opacity:1;vector-effect:none;fill:#8e8e8e;fill-opacity:1;stroke:none;stroke-width:104.167px;stroke-linecap:butt;stroke-linejoin:miter;stroke-miterlimit:4;stroke-dasharray:none;stroke-dashoffset:0;stroke-opacity:1;stop-color:#000000;stop-opacity:1"
       d="m 48184.02,57437.982 c 238.287,0 476.575,0 714.863,0 0,-794.487 0,-1588.975 0,-2383.462 -238.288,0 -476.576,0 -714.863,0 0,794.487 0,1588.975 0,2383.462 z" />
    <path
       id="path2115"
       style="font-variation-settings:normal;opacity:1;vector-effect:none;fill:#8e8e8e;fill-opacity:1;stroke:none;stroke-width:104.167px;stroke-linecap:butt;stroke-linejoin:miter;stroke-miterlimit:4;stroke-dasharray:none;stroke-dashoffset:0;stroke-opacity:1;stop-color:#000000;stop-opacity:1"
       d="m 35172.676,55727.514 c 0,241.218 0,482.436 0,723.654 714.623,-126.008 1429.246,-252.016 2143.869,-378.023 0,-241.219 0,-482.437 0,-723.655 -714.623,126.008 -1429.246,252.016 -2143.869,378.024 z" />
    <path
       id="path2113"
       style="font-variation-settings:normal;opacity:1;vector-effect:none;fill:#8e8e8e;fill-opacity:1;stroke:none;stroke-width:104.167px;stroke-linecap:butt;stroke-linejoin:miter;stroke-miterlimit:4;stroke-dasharray:none;stroke-dashoffset:0;stroke-opacity:1;stop-color:#000000;stop-opacity:1"
       d="m 45834.02,57437.982 c 241.086,0 482.173,0 723.259,0 0,-794.487 0,-1588.975 0,-2383.462 -241.086,0 -482.173,0 -723.259,0 0,794.487 0,1588.975 0,2383.462 z" />
    <path
       id="path2117"
       style="font-variation-settings:normal;opacity:1;vector-effect:none;fill:#8e8e8e;fill-opacity:1;stroke:none;stroke-width:104.167px;stroke-linecap:butt;stroke-linejoin:miter;stroke-miterlimit:4;stroke-dasharray:none;stroke-dashoffset:0;stroke-opacity:1;stop-color:#000000;stop-opacity:1"
       d="m 37580.869,55745.01 c 0,241.342 0,482.683 0,724.025 748.721,-132.019 1497.442,-264.039 2246.162,-396.058 0,-241.343 0,-482.685 0,-724.028 -748.72,132.02 -1497.441,264.041 -2246.162,396.061 z" />
    <path
       id="path2119"
       style="font-variation-settings:normal;opacity:1;vector-effect:none;fill:#8e8e8e;fill-opacity:1;stroke:none;stroke-width:104.167px;stroke-linecap:butt;stroke-linejoin:miter;stroke-miterlimit:4;stroke-dasharray:none;stroke-dashoffset:0;stroke-opacity:1;stop-color:#000000;stop-opacity:1"
       d="m 40097.469,55735.646 c 0,241.053 0,482.106 0,723.159 729.306,-128.597 1458.613,-257.193 2187.92,-385.789 0,-241.053 0,-482.106 0,-723.159 -729.307,128.597 -1458.614,257.193 -2187.92,385.789 z" />
    <path
       id="path2121"
       style="font-variation-settings:normal;opacity:1;vector-effect:none;fill:#8e8e8e;fill-opacity:1;stroke:none;stroke-width:104.167px;stroke-linecap:butt;stroke-linejoin:miter;stroke-miterlimit:4;stroke-dasharray:none;stroke-dashoffset:0;stroke-opacity:1;stop-color:#000000;stop-opacity:1"
       d="m 42555.869,55744.109 c 0,241.303 0,482.606 0,723.909 745.954,-131.532 1491.908,-263.064 2237.861,-394.596 0,-241.304 0,-482.607 0,-723.91 -745.953,131.532 -1491.907,263.065 -2237.861,394.597 z" />
  </g>
</svg>
