<?xml version="1.0" encoding="UTF-8" standalone="no"?>
<svg
   xmlns:dc="http://purl.org/dc/elements/1.1/"
   xmlns:cc="http://creativecommons.org/ns#"
   xmlns:rdf="http://www.w3.org/1999/02/22-rdf-syntax-ns#"
   xmlns:svg="http://www.w3.org/2000/svg"
   xmlns="http://www.w3.org/2000/svg"
   xmlns:xlink="http://www.w3.org/1999/xlink"
   xmlns:sodipodi="http://sodipodi.sourceforge.net/DTD/sodipodi-0.dtd"
   xmlns:inkscape="http://www.inkscape.org/namespaces/inkscape"
   width="51.0mm"
   height="15.0mm"
   viewBox="0 0 51.0 15.0"
   version="1.1"
   id="svg7057"
   sodipodi:docname="writing.svg"
   inkscape:version="1.0.1 (3bc2e813f5, 2020-09-07)">
  <defs
     id="defs7051">
    <clipPath
       id="SVGID_2_">
      <use
         xlink:href="#SVGID_1_"
         overflow="visible"
         id="use2607"
         x="0"
         y="0"
         width="100%"
         height="100%" />
    </clipPath>
    <clipPath
       id="SVGID_5_">
      <use
         xlink:href="#SVGID_4_"
         overflow="visible"
         id="use2636"
         x="0"
         y="0"
         width="100%"
         height="100%" />
    </clipPath>
    <path
       id="path2680"
       d="M 11211.062,0 H 820.322 C 369.145,0 0,369.145 0,820.322 v 7109.454 c 0,451.177 369.145,820.322 820.322,820.322 h 10390.741 c 451.177,0 820.321,-369.145 820.321,-820.322 V 820.322 C 12031.384,369.145 11662.239,0 11211.062,0 Z" />
    <path
       id="path2697"
       d="M 11211.062,0 H 820.322 C 369.145,0 0,369.145 0,820.322 v 7109.454 c 0,451.177 369.145,820.322 820.322,820.322 h 10390.741 c 451.177,0 820.321,-369.145 820.321,-820.322 V 820.322 C 12031.384,369.145 11662.239,0 11211.062,0 Z" />
    <clipPath
       id="SVGID_2_-2">
      <use
         xlink:href="#SVGID_1_"
         overflow="visible"
         id="use2607-2"
         x="0"
         y="0"
         width="100%"
         height="100%" />
    </clipPath>
    <clipPath
       id="SVGID_5_-8">
      <use
         xlink:href="#SVGID_4_"
         overflow="visible"
         id="use2636-9"
         x="0"
         y="0"
         width="100%"
         height="100%" />
    </clipPath>
    <path
       id="path2680-7"
       d="M 11211.062,0 H 820.322 C 369.145,0 0,369.145 0,820.322 v 7109.454 c 0,451.177 369.145,820.322 820.322,820.322 h 10390.741 c 451.177,0 820.321,-369.145 820.321,-820.322 V 820.322 C 12031.384,369.145 11662.239,0 11211.062,0 Z" />
    <path
       id="path2697-3"
       d="M 11211.062,0 H 820.322 C 369.145,0 0,369.145 0,820.322 v 7109.454 c 0,451.177 369.145,820.322 820.322,820.322 h 10390.741 c 451.177,0 820.321,-369.145 820.321,-820.322 V 820.322 C 12031.384,369.145 11662.239,0 11211.062,0 Z" />
  </defs>
  <sodipodi:namedview
     id="base"
     pagecolor="#ffffff"
     bordercolor="#666666"
     borderopacity="1.0"
     inkscape:pageopacity="0.0"
     inkscape:pageshadow="2"
     inkscape:zoom="2.8"
     inkscape:cx="-4.3466058"
     inkscape:cy="30.557899"
     inkscape:document-units="mm"
     inkscape:current-layer="g7637"
     inkscape:document-rotation="0"
     showgrid="false"
     inkscape:window-width="1918"
     inkscape:window-height="1058"
     inkscape:window-x="0"
     inkscape:window-y="20"
     inkscape:window-maximized="0" />
  <metadata
     id="metadata7054">
    <rdf:RDF>
      <cc:Work
         rdf:about="">
        <dc:format>image/svg+xml</dc:format>
        <dc:type
           rdf:resource="http://purl.org/dc/dcmitype/StillImage" />
        <dc:title></dc:title>
      </cc:Work>
    </rdf:RDF>
  </metadata>
  <g
     inkscape:label="[fixed] BG"
     inkscape:groupmode="layer"
     sodipodi:insensitive="true"
     id="g7625">
    <rect
       x="0"
       y="0"
       width="51.0"
       height="15.0"
       style="fill:#FFFFFF;fill-opacity:1;stroke:none"
       id="rect7623" />
  </g>
  <g
     inkscape:label="Edge.Cuts"
     inkscape:groupmode="layer"
     id="g7627" />
  <g
     inkscape:label="B.Cu"
     inkscape:groupmode="layer"
     id="g7629" />
  <g
     inkscape:label="B.Mask"
     inkscape:groupmode="layer"
     id="g7631" />
  <g
     inkscape:label="B.SilkS"
     inkscape:groupmode="layer"
     id="g7633" />
  <g
     inkscape:label="F.Cu"
     inkscape:groupmode="layer"
     id="g7635"
     style="display:inline"
     sodipodi:insensitive="true">
    <rect
       style="fill:#000000;fill-opacity:1;stroke:none;stroke-width:0.629431;stroke-linecap:round;stroke-linejoin:round;stroke-miterlimit:4;stroke-dasharray:none;stroke-opacity:1"
       id="rect2887"
       width="20.966"
       height="5.1849999"
       x="26.917356"
       y="14.50738"
       transform="rotate(-10)" />
    <rect
       style="fill:#000000;fill-opacity:1;stroke:none;stroke-width:0.764105;stroke-linecap:round;stroke-linejoin:round;stroke-miterlimit:4;stroke-dasharray:none;stroke-opacity:1"
       id="rect2876"
       width="29.704"
       height="4.8259978"
       x="19.229008"
       y="8.9134836"
       transform="rotate(-10)" />
    <rect
       style="fill:#000000;fill-opacity:1;stroke:none;stroke-width:0.307992;stroke-linecap:round;stroke-linejoin:round;stroke-miterlimit:4;stroke-dasharray:none;stroke-opacity:1"
       id="rect2887-3"
       width="4.8260002"
       height="4.8260002"
       x="-1.1405867"
       y="8.9134827"
       transform="rotate(-10)" />
    <rect
       style="fill:#000000;fill-opacity:1;stroke:none;stroke-width:0.338762;stroke-linecap:round;stroke-linejoin:round;stroke-miterlimit:4;stroke-dasharray:none;stroke-opacity:1"
       id="rect2968"
       width="5.8288002"
       height="4.8339839"
       x="12.477938"
       y="8.9095745"
       transform="rotate(-10)" />
    <rect
       style="fill:#000000;fill-opacity:1;stroke:none;stroke-width:0.356007;stroke-linecap:round;stroke-linejoin:round;stroke-miterlimit:4;stroke-dasharray:none;stroke-opacity:1"
       id="rect2966"
       width="6.4480004"
       height="4.8259997"
       x="4.8576756"
       y="8.9134827"
       transform="rotate(-10)" />
  </g>
  <g
     inkscape:label="F.Mask"
     inkscape:groupmode="layer"
     id="g7637"
     style="display:inline">
    <text
       xml:space="preserve"
       style="font-style:normal;font-variant:normal;font-weight:normal;font-stretch:normal;font-size:2.11667px;line-height:125%;font-family:'FFF Forward';-inkscape-font-specification:'FFF Forward';text-align:end;letter-spacing:0px;word-spacing:0px;text-anchor:end;display:inline;fill:#000000;fill-opacity:1;stroke:none;stroke-width:0.264583px;stroke-linecap:butt;stroke-linejoin:miter;stroke-opacity:1;"
       x="47.633419"
       y="16.609467"
       id="text2441"
       transform="rotate(-10)"><tspan
         sodipodi:role="line"
         x="47.633419"
         y="16.609467"
         style="font-style:normal;font-variant:normal;font-weight:normal;font-stretch:normal;font-size:2.11667px;font-family:'SYFY Fantasy';-inkscape-font-specification:'SYFY Fantasy';text-align:end;text-anchor:end;fill:#000000;fill-opacity:1;stroke:none;stroke-width:0.264583px;"
         id="tspan2439">Creativity &amp;</tspan><tspan
         sodipodi:role="line"
         x="47.633419"
         y="19.340467"
         style="font-style:normal;font-variant:normal;font-weight:normal;font-stretch:normal;font-size:2.11667px;font-family:'SYFY Fantasy';-inkscape-font-specification:'SYFY Fantasy';text-align:end;text-anchor:end;fill:#000000;fill-opacity:1;stroke:none;stroke-width:0.264583px;"
         id="tspan3088">Engineering</tspan></text>
    <text
       xml:space="preserve"
       style="font-style:normal;font-variant:normal;font-weight:normal;font-stretch:normal;font-size:4.93836px;line-height:125%;font-family:'FFF Forward';-inkscape-font-specification:'FFF Forward';text-align:end;letter-spacing:0px;word-spacing:0px;text-anchor:end;display:inline;fill:#000000;fill-opacity:1;stroke:none;stroke-width:0.264526px;stroke-linecap:butt;stroke-linejoin:miter;stroke-opacity:1;"
       x="48.679508"
       y="13.484544"
       id="text2441-3"
       transform="rotate(-10)"><tspan
         sodipodi:role="line"
         x="48.679508"
         y="13.484544"
         style="font-style:normal;font-variant:normal;font-weight:normal;font-stretch:normal;font-size:4.93836px;font-family:'SYFY Fantasy';-inkscape-font-specification:'SYFY Fantasy';text-align:end;text-anchor:end;fill:#000000;fill-opacity:1;stroke:none;stroke-width:0.264526px;"
         id="tspan2439-6">spbnick</tspan></text>
    <g
       id="g2851"
       transform="rotate(-10,-36.442644,128.10949)"
       style="fill:#000000">
      <g
         style="fill:#000000;fill-opacity:1;stroke:none"
         id="g2730"
         transform="matrix(0.00422464,0,0,0.00422464,20.80175,17.43795)">
        <path
           fill-rule="evenodd"
           clip-rule="evenodd"
           d="M 8,0 C 3.58,0 0,3.58 0,8 c 0,3.54 2.29,6.53 5.47,7.59 0.4,0.07 0.55,-0.17 0.55,-0.38 0,-0.19 -0.01,-0.82 -0.01,-1.49 C 4,14.09 3.48,13.23 3.32,12.78 3.23,12.55 2.84,11.84 2.5,11.65 2.22,11.5 1.82,11.13 2.49,11.12 3.12,11.11 3.57,11.7 3.72,11.94 4.44,13.15 5.59,12.81 6.05,12.6 6.12,12.08 6.33,11.73 6.56,11.53 4.78,11.33 2.92,10.64 2.92,7.58 2.92,6.71 3.23,5.99 3.74,5.43 3.66,5.23 3.38,4.41 3.82,3.31 c 0,0 0.67,-0.21 2.2,0.82 0.64,-0.18 1.32,-0.27 2,-0.27 0.68,0 1.36,0.09 2,0.27 1.53,-1.04 2.2,-0.82 2.2,-0.82 0.44,1.1 0.16,1.92 0.08,2.12 0.51,0.56 0.82,1.27 0.82,2.15 0,3.07 -1.87,3.75 -3.65,3.95 0.29,0.25 0.54,0.73 0.54,1.48 0,1.07 -0.01,1.93 -0.01,2.2 0,0.21 0.15,0.46 0.55,0.38 C 13.71,14.53 16,11.53 16,8 16,3.58 12.42,0 8,0 Z"
           transform="scale(64)"
           fill="#1b1f23"
           id="path2719"
           style="fill:#000000;fill-opacity:1;stroke:none" />
      </g>
    </g>
    <path
       style="fill:#000000;fill-opacity:1;stroke:none;stroke-width:0.0310378"
       inkscape:connector-curvature="0"
       id="path5"
       d="M 19.459698,6.3935684 C 19.281917,6.5131261 19.084803,6.6074799 18.871859,6.6718381 19.070427,6.4995842 19.20382,6.2587448 19.239821,5.9934306 19.053726,6.1533491 18.839343,6.2834185 18.602848,6.3748473 18.369823,6.2004006 18.067278,6.1191018 17.75793,6.1736482 c -0.59395,0.1047294 -0.990627,0.6711763 -0.885897,1.2651276 0.01486,0.0843 0.03889,0.1647058 0.07108,0.2401914 -0.901771,0.1127641 -1.76975,-0.1756913 -2.414952,-0.7328546 -0.06457,0.1751652 -0.08505,0.3692584 -0.05029,0.5663687 0.06579,0.3731456 0.313715,0.6688553 0.636311,0.810833 -0.177288,0.025473 -0.351654,0.00636 -0.510859,-0.048621 6.84e-4,0.00455 0.0015,0.00898 0.0023,0.013542 0.09188,0.5210835 0.539259,0.8903775 1.048707,0.9024918 -0.08591,0.040504 -0.178611,0.070385 -0.276695,0.08768 -0.0693,0.01222 -0.137865,0.017303 -0.205754,0.016388 0.212216,0.4031387 0.664227,0.6440508 1.136404,0.5697118 -0.317219,0.3533871 -0.750633,0.6071031 -1.254549,0.6959571 -0.08681,0.01531 -0.173321,0.02528 -0.25921,0.03019 0.529785,0.221254 1.126509,0.299625 1.733881,0.192529 1.978256,-0.34882 2.771114,-2.1783937 2.520502,-3.5996831 -0.0082,-0.046631 -0.01748,-0.092804 -0.02769,-0.1386016 0.183378,-0.1886554 0.332307,-0.4102085 0.438464,-0.6513266 z" />
    <g
       id="g2801"
       transform="matrix(0.38169334,-0.06730284,0.06730284,0.38169334,14.532054,13.913834)"
       style="fill:#000000">
      <g
         id="g2670"
         transform="matrix(0.26458333,0,0,0.26458333,-1025.5688,299.0265)"
         style="fill:#000000;fill-opacity:1;stroke:none">
        <g
           id="g2661"
           transform="matrix(0.00482112,0,0,0.00482112,3722.2024,-1200.2955)"
           style="fill:#000000;fill-opacity:1;stroke:none">
          <g
             id="g2618"
             style="fill:#000000;fill-opacity:1;stroke:none">
            <g
               id="g2614"
               style="fill:#000000;fill-opacity:1;stroke:none">
              <defs
                 id="defs2605">
                <path
                   id="path7907"
                   d="M 11211.062,0 H 820.322 C 369.145,0 0,369.145 0,820.322 v 7109.454 c 0,451.177 369.145,820.322 820.322,820.322 h 10390.741 c 451.177,0 820.321,-369.145 820.321,-820.322 V 820.322 C 12031.384,369.145 11662.239,0 11211.062,0 Z" />
              </defs>
              <clipPath
                 id="clipPath7801">
                <use
                   xlink:href="#SVGID_1_"
                   overflow="visible"
                   id="use7799"
                   x="0"
                   y="0"
                   width="100%"
                   height="100%" />
              </clipPath>
              <g
                 opacity="0.2"
                 clip-path="url(#SVGID_2_-2)"
                 enable-background="new    "
                 id="g2612"
                 style="fill:#000000;fill-opacity:1;stroke:none" />
            </g>
          </g>
          <path
             id="path2622"
             style="fill:#000000;fill-opacity:1;stroke:none"
             d="m 15353.088,1284.6897 c -451.177,0 -820.323,369.1452 -820.323,820.3222 v 7109.4532 c 0,451.178 369.146,820.3219 820.323,820.3219 h 546.88 V 3473.092 l 4648.491,3180.6035 4648.488,-3180.6035 v 6561.695 h 546.883 c 451.177,0 820.32,-369.1449 820.32,-820.3219 V 2105.0119 c 0,-451.177 -369.145,-820.3222 -820.322,-820.3222 l -5195.369,3554.7265 z"
             transform="translate(3673.4875,-1026.0764)"
             sodipodi:nodetypes="cssscccccsssccc" />
          <linearGradient
             id="SVGID_3_"
             gradientUnits="userSpaceOnUse"
             x1="-607.29572"
             y1="43958.855"
             x2="56717.496"
             y2="-13365.935"
             gradientTransform="matrix(0.125,0,0,-0.125,3584.6055,3978.0549)">
            <stop
               offset="0"
               style="stop-color:#262626;stop-opacity:0.2"
               id="stop2626" />
            <stop
               offset="1"
               style="stop-color:#262626;stop-opacity:0.02"
               id="stop2628" />
          </linearGradient>
          <g
             id="g2647"
             style="fill:#000000;fill-opacity:1;stroke:none">
            <g
               id="g2643"
               style="fill:#000000;fill-opacity:1;stroke:none">
              <defs
                 id="defs2634">
                <path
                   id="path7919"
                   d="M 11211.062,0 H 820.322 C 369.145,0 0,369.145 0,820.322 v 7109.454 c 0,451.177 369.145,820.322 820.322,820.322 h 10390.741 c 451.177,0 820.321,-369.145 820.321,-820.322 V 820.322 C 12031.384,369.145 11662.239,0 11211.062,0 Z" />
              </defs>
              <clipPath
                 id="clipPath7814">
                <use
                   xlink:href="#SVGID_4_"
                   overflow="visible"
                   id="use7812"
                   x="0"
                   y="0"
                   width="100%"
                   height="100%" />
              </clipPath>
              <g
                 opacity="0.2"
                 clip-path="url(#SVGID_5_-8)"
                 enable-background="new    "
                 id="g2641"
                 style="fill:#000000;fill-opacity:1;stroke:none" />
            </g>
          </g>
        </g>
        <radialGradient
           id="SVGID_6_-5"
           cx="-10383.194"
           cy="-8908.9717"
           r="113676.78"
           gradientTransform="matrix(0.125,0,0,-0.125,3584.6055,3978.0549)"
           gradientUnits="userSpaceOnUse"
           fx="-10383.194"
           fy="-8908.9717">
          <stop
             offset="0"
             style="stop-color:#FFFFFF;stop-opacity:0.1"
             id="stop2663" />
          <stop
             offset="1"
             style="stop-color:#FFFFFF;stop-opacity:0"
             id="stop2665" />
        </radialGradient>
      </g>
    </g>
  </g>
  <g
     inkscape:label="F.SilkS"
     inkscape:groupmode="layer"
     id="g7639" />
  <g
     inkscape:label="Dwgs.User"
     inkscape:groupmode="layer"
     id="g7641" />
  <g
     inkscape:label="Drill"
     inkscape:groupmode="layer"
     id="g7643" />
</svg>
